<?xml version="1.0" encoding="iso-8859-1"?>
<!-- Generator: Adobe Illustrator 19.0.0, SVG Export Plug-In . SVG Version: 6.00 Build 0)  -->
<svg version="1.1" id="Capa_1" xmlns="http://www.w3.org/2000/svg" xmlns:xlink="http://www.w3.org/1999/xlink" x="0px" y="0px"
	 viewBox="0 0 512 512" style="enable-background:new 0 0 512 512;" xml:space="preserve">
<path style="fill:#40596B;" d="M249.6,0H84.267C72.533,0,62.933,9.6,62.933,21.333v35.2c0,11.733,9.6,21.333,21.333,21.333H249.6
	c11.733,0,21.333-9.6,21.333-21.333v-35.2C270.933,9.6,261.333,0,249.6,0z"/>
<path style="fill:#FF7058;" d="M318.933,252.8v237.867c0,11.733-9.6,21.333-21.333,21.333H36.267
	c-11.733,0-21.333-9.6-21.333-21.333V252.8C14.933,194.133,48,144,96,118.4V77.867h142.933v41.6
	C285.867,145.067,318.933,195.2,318.933,252.8z"/>
<rect x="94.933" y="77.867" style="fill:#F1543F;" width="142.933" height="16"/>
<rect x="14.933" y="261.333" style="fill:#FFD15C;" width="166.4" height="136.533"/>
<polygon style="fill:#FFFFFF;" points="140.8,318.933 108.8,318.933 108.8,286.933 87.467,286.933 87.467,318.933 55.467,318.933 
	55.467,340.267 87.467,340.267 87.467,372.267 108.8,372.267 108.8,340.267 140.8,340.267 "/>
<path style="fill:#CDD6E0;" d="M456.533,193.067c24.533-12.8,40.533-38.4,40.533-67.2c0-42.667-34.133-124.8-76.8-124.8
	s-76.8,83.2-76.8,124.8c0,28.8,16,54.4,40.533,67.2l-21.333,257.067c-3.2,33.067,23.467,61.867,57.6,61.867s59.733-28.8,57.6-61.867
	L456.533,193.067z"/>
<path style="fill:#ACB3BA;" d="M477.867,450.133l-5.333-70.4H369.067l-5.333,70.4C360.533,483.2,387.2,512,421.333,512
	S481.067,483.2,477.867,450.133z"/>
<g>
</g>
<g>
</g>
<g>
</g>
<g>
</g>
<g>
</g>
<g>
</g>
<g>
</g>
<g>
</g>
<g>
</g>
<g>
</g>
<g>
</g>
<g>
</g>
<g>
</g>
<g>
</g>
<g>
</g>
</svg>
